<?xml version="1.0" encoding="UTF-8" standalone="no"?>
<!-- Created with Inkscape (http://www.inkscape.org/) -->

<svg
   xmlns:dc="http://purl.org/dc/elements/1.1/"
   xmlns:cc="http://creativecommons.org/ns#"
   xmlns:rdf="http://www.w3.org/1999/02/22-rdf-syntax-ns#"
   xmlns:svg="http://www.w3.org/2000/svg"
   xmlns="http://www.w3.org/2000/svg"
   xmlns:xlink="http://www.w3.org/1999/xlink"
   xmlns:sodipodi="http://sodipodi.sourceforge.net/DTD/sodipodi-0.dtd"
   xmlns:inkscape="http://www.inkscape.org/namespaces/inkscape"
   width="38.400002"
   height="38.400002"
   id="svg2"
   version="1.1"
   inkscape:version="0.92.1 r15371"
   sodipodi:docname="add.svg"
   inkscape:export-filename="D:\wamp64\www\gro\images\icons\add2.png"
   inkscape:export-xdpi="40"
   inkscape:export-ydpi="40">
  <defs
     id="defs4">
    <linearGradient
       id="linearGradient5173"
       inkscape:collect="always">
      <stop
         id="stop5169"
         offset="0"
         style="stop-color:#00aa31;stop-opacity:1" />
      <stop
         id="stop5171"
         offset="1"
         style="stop-color:#ffffff;stop-opacity:0" />
    </linearGradient>
    <linearGradient
       inkscape:collect="always"
       id="linearGradient12-4-5">
      <stop
         style="stop-color:#4d4d4d;stop-opacity:1;"
         offset="0"
         id="stop8" />
      <stop
         style="stop-color:#4d4d4d;stop-opacity:0;"
         offset="1"
         id="stop10" />
    </linearGradient>
    <linearGradient
       inkscape:collect="always"
       xlink:href="#linearGradient5173"
       id="linearGradient14"
       x1="14.394674"
       y1="1113.1758"
       x2="57.326157"
       y2="1065.446"
       gradientUnits="userSpaceOnUse" />
    <linearGradient
       gradientTransform="translate(-60.213761,31.836594)"
       inkscape:collect="always"
       xlink:href="#linearGradient12-4-5"
       id="linearGradient14-1"
       x1="14.394674"
       y1="1113.1758"
       x2="56.568542"
       y2="1065.0673"
       gradientUnits="userSpaceOnUse" />
  </defs>
  <sodipodi:namedview
     id="base"
     pagecolor="#ffffff"
     bordercolor="#666666"
     borderopacity="1.0"
     inkscape:pageopacity="0.0"
     inkscape:pageshadow="2"
     inkscape:zoom="7.919596"
     inkscape:cx="9.0143202"
     inkscape:cy="9.8732512"
     inkscape:document-units="px"
     inkscape:current-layer="layer1"
     showgrid="false"
     inkscape:window-width="1920"
     inkscape:window-height="1018"
     inkscape:window-x="1272"
     inkscape:window-y="-8"
     inkscape:window-maximized="1" />
  <metadata
     id="metadata7">
    <rdf:RDF>
      <cc:Work
         rdf:about="">
        <dc:format>image/svg+xml</dc:format>
        <dc:type
           rdf:resource="http://purl.org/dc/dcmitype/StillImage" />
        <dc:title />
      </cc:Work>
    </rdf:RDF>
  </metadata>
  <g
     inkscape:label="Calque 1"
     inkscape:groupmode="layer"
     id="layer1"
     transform="translate(0,-1084.1197)">
    <path
       style="fill:url(#linearGradient14);stroke-width:0.7;fill-opacity:1;stroke:#004200;stroke-opacity:1;stroke-miterlimit:4;stroke-dasharray:none"
       d="m 16.716597,1116.6605 c -0.859579,-0.5241 -0.892033,0.5511 -0.875982,-4.5243 l -0.07534,-5.5074 -4.093596,-0.093 c -5.0747842,-0.083 -5.1358252,-0.092 -5.6599442,-0.9517 -0.262094,-0.4299 -0.292834,0.062 -0.292834,-2.4339 0,-2.5004 0.0304,-1.5398 0.294236,-1.9723 0.547506,-0.8982 0.681575,-0.9198 5.5831712,-0.8987 2.44562,0.012 3.952288,-0.018 4.055914,-0.088 0.143922,-0.091 0.238005,-2.4926 0.18898,-5.9684 -0.07496,-5.3142 -0.120365,-4.7132 3.693575,-4.7877 2.465348,3e-4 2.067279,0.031 2.496524,0.2933 0.859581,0.524 0.887663,-0.7022 0.951693,4.3728 l 0.07534,5.9714 5.414745,0.075 c 5.074782,0.082 3.848766,0.1681 4.372893,1.0275 0.262095,0.4298 0.292833,-0.5258 0.292833,1.9701 0,2.4958 -0.03075,2.004 -0.292833,2.4339 -0.524127,0.8596 0.701889,0.7943 -4.372893,0.876 l -5.414745,0.075 -0.07534,5.5075 c -0.06943,5.075 -0.167818,4.0001 -1.027402,4.5242 -0.429847,0.2622 -0.03088,0.2929 -2.526725,0.2929 -2.49585,0 -2.282394,0.062 -2.712248,-0.2 z"
       inkscape:connector-curvature="0"
       id="path3006"
       sodipodi:nodetypes="cscccscccsccscccscccscscc"
       inkscape:export-filename="C:\wamp\www\images\icons\add.png"
       inkscape:export-xdpi="43"
       inkscape:export-ydpi="43" />
    <path
       style="fill:url(#linearGradient14-1);fill-opacity:1;stroke:#000000;stroke-width:0.69999999;stroke-miterlimit:4;stroke-dasharray:none;stroke-opacity:1"
       d="m -43.497164,1148.4971 c -0.859579,-0.5241 -0.892033,0.5511 -0.875982,-4.5243 l -0.07534,-5.5074 -4.093596,-0.093 c -5.074784,-0.083 -5.135825,-0.092 -5.659945,-0.9517 -0.262094,-0.4299 -0.292834,0.062 -0.292834,-2.4339 0,-2.5004 0.0304,-1.5398 0.294236,-1.9723 0.547507,-0.8982 0.681576,-0.9198 5.583172,-0.8987 2.44562,0.012 3.952288,-0.018 4.055914,-0.088 0.143922,-0.091 0.238005,-2.4926 0.18898,-5.9684 -0.07496,-5.3142 -0.120365,-4.7132 3.693575,-4.7877 2.465348,3e-4 2.067279,0.031 2.496524,0.2933 0.859581,0.524 0.887663,-0.7022 0.951693,4.3728 l 0.07534,5.9714 5.414745,0.075 c 5.074782,0.082 3.848766,0.1681 4.372893,1.0275 0.262095,0.4298 0.292833,-0.5258 0.292833,1.9701 0,2.4958 -0.03075,2.004 -0.292833,2.4339 -0.524127,0.8596 0.701889,0.7943 -4.372893,0.876 l -5.414745,0.075 -0.07534,5.5075 c -0.06943,5.075 -0.167818,4.0001 -1.027402,4.5242 -0.429847,0.2622 -0.03088,0.2929 -2.526725,0.2929 -2.49585,0 -2.282394,0.062 -2.712248,-0.2 z"
       inkscape:connector-curvature="0"
       id="path3006-1"
       sodipodi:nodetypes="cscccscccsccscccscccscscc"
       inkscape:export-filename="C:\wamp\www\images\icons\add.png"
       inkscape:export-xdpi="43"
       inkscape:export-ydpi="43" />
  </g>
</svg>
