<?xml version="1.0" encoding="UTF-8" standalone="no"?>
<!-- Created with Inkscape (http://www.inkscape.org/) -->

<svg
   xmlns:dc="http://purl.org/dc/elements/1.1/"
   xmlns:cc="http://creativecommons.org/ns#"
   xmlns:rdf="http://www.w3.org/1999/02/22-rdf-syntax-ns#"
   xmlns:svg="http://www.w3.org/2000/svg"
   xmlns="http://www.w3.org/2000/svg"
   xmlns:sodipodi="http://sodipodi.sourceforge.net/DTD/sodipodi-0.dtd"
   xmlns:inkscape="http://www.inkscape.org/namespaces/inkscape"
   width="210mm"
   height="297mm"
   id="svg2"
   version="1.1"
   inkscape:version="0.48.4 r9939"
   sodipodi:docname="archives.svg">
  <defs
     id="defs4" />
  <sodipodi:namedview
     id="base"
     pagecolor="#ffffff"
     bordercolor="#666666"
     borderopacity="1.0"
     inkscape:pageopacity="0.0"
     inkscape:pageshadow="2"
     inkscape:zoom="2.8"
     inkscape:cx="230.9741"
     inkscape:cy="931.85706"
     inkscape:document-units="px"
     inkscape:current-layer="layer1"
     showgrid="false"
     inkscape:window-width="1920"
     inkscape:window-height="1003"
     inkscape:window-x="1271"
     inkscape:window-y="-9"
     inkscape:window-maximized="1" />
  <metadata
     id="metadata7">
    <rdf:RDF>
      <cc:Work
         rdf:about="">
        <dc:format>image/svg+xml</dc:format>
        <dc:type
           rdf:resource="http://purl.org/dc/dcmitype/StillImage" />
        <dc:title></dc:title>
      </cc:Work>
    </rdf:RDF>
  </metadata>
  <g
     inkscape:label="Calque 1"
     inkscape:groupmode="layer"
     id="layer1">
    <path
       style="fill:#000000"
       d="m 79.34662,227.50604 c 0,-7.03994 2.72481,-16.83789 4.68263,-16.83789 1.70164,0 1.66157,1.24047 -0.18262,5.65424 -0.82501,1.97451 -1.50001,3.98505 -1.50001,4.46788 0,0.48284 2.20186,0.87788 4.89301,0.87788 3.42685,0 5.06549,0.44947 5.46862,1.5 0.31658,0.825 1.50385,1.5 2.63837,1.5 1.13452,0 2.32179,-0.675 2.63837,-1.5 0.40313,-1.05053 2.04177,-1.5 5.46862,-1.5 2.69115,0 4.89301,-0.39342 4.89301,-0.87427 0,-0.48085 -0.675,-2.78743 -1.5,-5.12573 -1.8165,-5.14852 -1.81108,-5 -0.18262,-5 1.9578,0 4.68261,9.79795 4.68261,16.83789 l 0,6.16211 -15.99999,0 -16,0 0,-6.16211 z"
       id="path3872" />
    <path
       style="fill:#ffffff"
       d="m 109.15997,227.41814 c -0.28511,-2.95696 -0.64633,-3.27768 -4.00638,-3.55697 -2.67982,-0.22275 -4.25738,0.25738 -5.75,1.75 -1.13133,1.13133 -2.95697,2.05697 -4.05697,2.05697 -1.1,0 -2.92564,-0.92564 -4.05697,-2.05697 -1.49262,-1.49262 -3.07018,-1.97275 -5.74999,-1.75 -3.36006,0.27929 -3.72129,0.60001 -4.0064,3.55697 l -0.31336,3.25 14.12672,0 14.12671,0 -0.31336,-3.25 z"
       id="path3870" />
    <path
       style="fill:#000000"
       d="m 154.42411,227.41814 c 0.0907,-7.31166 2.86641,-16.10863 5.22757,-16.56742 1.46826,-0.28529 1.43974,0.24605 -0.28187,5.25 l -1.91548,5.56742 4.97753,0 c 3.50197,0 5.14815,0.44466 5.55312,1.5 0.31659,0.825 1.60432,1.5 2.86163,1.5 1.25731,0 2.54504,-0.675 2.86163,-1.5 0.40497,-1.05534 2.05115,-1.5 5.55312,-1.5 l 4.97753,0 -1.89228,-5.5 c -1.51864,-4.41401 -1.62092,-5.5 -0.51799,-5.5 2.17339,0 5.51799,10.3269 5.51799,17.03751 l 0,5.96249 -16.5,0 -16.5,0 0.0775,-6.25 z"
       id="path3868" />
    <path
       style="fill:#ffffff"
       d="m 184.34661,227.16814 c 0,-3.39315 -0.11738,-3.5 -3.84501,-3.5 -2.57502,0 -4.44284,0.66059 -5.65499,2 -0.99549,1.1 -2.79549,2 -4,2 -1.20451,0 -3.00451,-0.9 -4,-2 -1.21215,-1.33941 -3.07997,-2 -5.65499,-2 -3.72763,0 -3.84501,0.10685 -3.84501,3.5 l 0,3.5 13.5,0 13.5,0 0,-3.5 z"
       id="path3866" />
    <path
       style="fill:#000000"
       d="m 384.34661,227.66814 0,-6 10.5,0 10.5,0 0,6 0,6 -10.5,0 -10.5,0 0,-6 z"
       id="path3864" />
    <path
       style="fill:#ffffff"
       d="m 402.84661,227.66814 0,-3.5 -7.75,-0.29206 -7.75,-0.29207 0,4.08413 0,4.08413 7.75,-0.29207 7.75,-0.29206 0,-3.5 z"
       id="path3862" />
    <path
       style="fill:#000000"
       d="m 305.34661,227.16814 c 0,-4.22222 0.34848,-5.5 1.5,-5.5 1.11111,0 1.5,1.16667 1.5,4.5 l 0,4.5 12.5,0 12.5,0 0,-4.5 c 0,-3.33333 0.38889,-4.5 1.5,-4.5 1.15152,0 1.5,1.27778 1.5,5.5 l 0,5.5 -15.5,0 -15.5,0 0,-5.5 z"
       id="path3860" />
    <path
       style="fill:#000000"
       d="m 230.34661,218.16814 0,-13.5 6.39301,0 c 4.76019,0 6.54003,0.38311 6.96862,1.5 0.4494,1.17114 2.44602,1.5 9.10699,1.5 l 8.53138,0 0,12 0,12 -15.5,0 -15.5,0 0,-13.5 z"
       id="path3858" />
    <path
       style="fill:#ffffff"
       d="m 259.34661,219.66814 0,-9 -8.39301,0 c -6.53796,0 -8.52023,-0.33153 -8.96862,-1.5 -0.39446,-1.02797 -2.00158,-1.5 -5.10699,-1.5 l -4.53138,0 0,10.5 0,10.5 13.5,0 13.5,0 0,-9 z"
       id="path3856" />
    <path
       style="fill:#000000"
       d="m 377.54661,228.46814 c -1.47741,-1.47741 -1.59904,-13.18587 -0.16482,-15.86574 0.66611,-1.24464 2.09223,-1.93426 4,-1.93426 2.84719,0 2.96482,-0.17853 2.96482,-4.5 l 0,-4.5 10.5,0 10.5,0 0,4.5 c 0,4.29078 0.13379,4.5 2.87756,4.5 4.32899,0 5.25174,1.88613 4.91812,10.05273 -0.225,5.5077 -0.70252,7.49335 -1.99772,8.30713 -2.07517,1.30384 -3.62692,0.0691 -1.98129,-1.57653 0.66067,-0.66067 1.18333,-3.96596 1.18333,-7.48333 l 0,-6.3 -15.5,0 -15.5,0 0,6.44098 c 0,3.54254 0.45,6.7191 1,7.05902 0.55,0.33992 1,1.04148 1,1.55902 0,1.33041 -2.37227,1.16871 -3.8,-0.25902 z"
       id="path3854" />
    <path
       style="fill:#ffffff"
       d="m 403.34661,207.66814 0,-3 -8,0 -8,0 0,3 0,3 8,0 8,0 0,-3 z"
       id="path3852" />
    <path
       style="fill:#000000"
       d="m 315.05691,223.0451 c -0.39067,-0.39066 -0.7103,-1.53529 -0.7103,-2.54363 0,-1.53333 -0.81818,-1.83333 -5,-1.83333 l -5,0 0,-4.303 c 0,-3.23471 0.76627,-5.34496 3.08651,-8.5 l 3.08651,-4.197 10.16349,0.0379 10.16349,0.0379 2.75,3.9754 c 2.00068,2.89218 2.75,5.19792 2.75,8.46205 l 0,4.48665 -4.43045,0 c -3.83319,0 -4.47353,0.30332 -4.75,2.25 -0.28136,1.9811 -0.98161,2.28509 -5.85925,2.54363 -3.04684,0.1615 -5.85934,-0.026 -6.25,-0.41667 z"
       id="path3850" />
    <path
       style="fill:#ffffff"
       d="m 325.10264,219.91814 c 0.2884,-0.87791 -0.95369,-1.25 -4.1727,-1.25 -4.31545,0 -5.51303,0.73696 -3.86907,2.38093 1.14599,1.14599 7.59157,0.23954 8.04177,-1.13093 z"
       id="path3848" />
    <path
       style="fill:#ffffff"
       d="m 334.09661,214.41814 c -0.30556,-0.91667 -3.97222,-1.25 -13.75,-1.25 -9.77778,0 -13.44444,0.33333 -13.75,1.25 -0.32026,0.96078 2.86111,1.25 13.75,1.25 10.88889,0 14.07026,-0.28922 13.75,-1.25 z"
       id="path3846" />
    <path
       style="fill:#ffffff"
       d="m 332.34661,208.82313 c 0,-0.46476 -0.84321,-1.60811 -1.87379,-2.54078 -1.52177,-1.37718 -3.51909,-1.64113 -10.63146,-1.40498 -7.80234,0.25905 -8.92025,0.53621 -10.24818,2.54077 l -1.49051,2.25 12.12197,0 c 6.66708,0 12.12197,-0.38026 12.12197,-0.84501 z"
       id="path3844" />
    <path
       style="fill:#000000"
       d="m 405.34661,217.16814 c 0,-0.825 0.45,-1.5 1,-1.5 0.55,0 1,0.675 1,1.5 0,0.825 -0.45,1.5 -1,1.5 -0.55,0 -1,-0.675 -1,-1.5 z"
       id="path3842" />
    <path
       style="fill:#000000"
       d="m 94.34662,213.01315 c 0,-4.60976 -0.0197,-4.63719 -2.02363,-2.82363 -1.31919,1.19385 -2.36419,1.4908 -3.00195,0.85304 -0.63775,-0.63775 0.24731,-2.16624 2.54251,-4.39083 l 3.52082,-3.41251 3.69779,3.69779 c 2.60264,2.60265 3.38414,4.01145 2.63874,4.75684 -0.74539,0.7454 -1.43815,0.60226 -2.33911,-0.48333 -2.10183,-2.53256 -3.03517,-1.77682 -3.03517,2.45762 0,2.2 -0.45,4 -1,4 -0.55,0 -1,-2.09474 -1,-4.65499 z"
       id="path3840" />
    <path
       style="fill:#000000"
       d="m 167.44865,214.27342 c -3.53722,-3.64948 -3.53967,-7.21629 -0.003,-4.01544 1.84176,1.66678 1.90072,1.57575 1.90072,-2.93485 0,-3.4711 0.38149,-4.65499 1.5,-4.65499 1.11851,0 1.5,1.18389 1.5,4.65499 0,4.5106 0.059,4.60163 1.90072,2.93485 1.37773,-1.24682 2.10018,-1.3974 2.6256,-0.54725 0.42377,0.68568 -0.69207,2.58983 -2.68626,4.58402 l -3.41114,3.41114 -3.32688,-3.43247 z"
       id="path3838" />
    <path
       style="fill:#000000"
       d="m 81.91805,152.09671 c -1.23685,-1.23685 -1.57143,-3.89827 -1.57143,-12.5 l 0,-10.92857 6.03139,0 c 4.43873,0 6.18337,0.39609 6.60698,1.5 0.37526,0.97789 1.93065,1.5 4.46862,1.5 2.14115,0 3.89301,0.45 3.89301,1 0,1.69332 -9.97665,1.22442 -10.63837,-0.5 -0.35516,-0.92551 -1.8751,-1.5 -3.96861,-1.5 l -3.39302,0 0,10 c 0,5.5 0.38976,10 0.86612,10 0.47636,0 2.27459,-3.15 3.99606,-7 l 3.12995,-7 10.95938,0 10.95936,0 -3.04199,7.25 c -1.67308,3.9875 -3.76404,7.8125 -4.64656,8.5 -2.51442,1.95878 -21.63047,1.69898 -23.65089,-0.32143 z"
       id="path3836" />
    <path
       style="fill:#ffffff"
       d="m 106.38216,146.08523 c 3.11135,-7.25852 2.99273,-7.41709 -5.54815,-7.41709 l -7.51261,0 -2.48739,5.62443 c -1.36806,3.09344 -2.48739,5.79344 -2.48739,6 0,0.20656 3.61599,0.37557 8.03554,0.37557 l 8.03553,0 1.96447,-4.58291 z"
       id="path3834" />
    <path
       style="fill:#000000"
       d="m 157.09661,152.58804 c -1.50543,-0.87683 -1.75,-2.6195 -1.75,-12.46959 l 0,-11.45031 5.89301,0 c 4.31574,0 6.04707,0.40148 6.46862,1.5 0.36128,0.94149 1.89047,1.5 4.10699,1.5 1.94226,0 3.53138,0.45 3.53138,1 0,1.68145 -8.98004,1.2156 -9.63837,-0.5 -0.37651,-0.98117 -1.93468,-1.5 -4.50483,-1.5 l -3.92922,0 0.28621,9.66894 c 0.16612,5.61199 0.72675,9.81483 1.33615,10.01664 0.57746,0.19124 2.45286,-2.80978 4.16756,-6.66893 l 3.11762,-7.01665 10.58244,0 c 5.89046,0 10.58244,0.41415 10.58244,0.93409 0,1.95725 -5.39748,13.62317 -6.85489,14.81591 -1.87591,1.53524 -20.81482,1.67278 -23.39511,0.1699 z"
       id="path3832" />
    <path
       style="fill:#ffffff"
       d="m 180.86224,146.97649 c 3.54221,-8.47771 3.64337,-8.30835 -4.96225,-8.30835 l -7.66344,0 -2.44497,5.52851 c -1.34473,3.04069 -2.44497,5.74069 -2.44497,6 0,0.25932 3.59396,0.47149 7.98658,0.47149 l 7.98658,0 1.54247,-3.69165 z"
       id="path3830" />
    <path
       style="fill:#000000"
       d="m 380.54661,150.46814 c -0.79174,-0.79174 -1.2,-5.04444 -1.2,-12.5 l 0,-11.3 5.89301,0 c 4.31574,0 6.04707,0.40148 6.46862,1.5 0.43613,1.13654 2.27936,1.5 7.60699,1.5 4.02092,0 7.03138,0.42815 7.03138,1 0,0.58824 -3.5,1 -8.5,1 -7.03504,0 -8.5,-0.26893 -8.5,-1.56037 0,-1.19159 -0.88625,-1.48701 -3.75,-1.25 l -3.75,0.31037 0,9.41667 c 0,6.0354 0.4003,9.5501 1.11481,9.78827 0.61314,0.20438 2.41314,-2.79416 4,-6.66342 l 2.88519,-7.03501 11.15292,-0.003 11.15292,-0.003 -3.02225,7.25 c -1.66223,3.9875 -3.47364,7.8125 -4.02536,8.5 -1.36667,1.70302 -22.86144,1.74679 -24.55823,0.05 z"
       id="path3828" />
    <path
       style="fill:#ffffff"
       d="m 405.29982,144.04102 c 1.12573,-2.54491 2.04679,-5.01991 2.04679,-5.5 0,-0.48008 -3.54459,-0.87288 -7.87686,-0.87288 l -7.87685,0 -2.12315,4.93538 c -1.16773,2.71446 -2.12314,5.18946 -2.12314,5.5 0,0.31054 3.57894,0.56462 7.95321,0.56462 l 7.9532,0 2.0468,-4.62712 z"
       id="path3826" />
    <path
       style="fill:#000000"
       d="m 230.34661,145.66814 c 0,-2.88889 0.41667,-4 1.5,-4 1.00349,0 1.5,1.00353 1.5,3.03174 l 0,3.03173 11.75,-0.28173 11.75,-0.28174 0.31642,-2.75 c 0.48667,-4.22958 2.18358,-3.25818 2.18358,1.25 l 0,4 -14.5,0 -14.5,0 0,-4 z"
       id="path3824" />
    <path
       style="fill:#000000"
       d="m 305.34661,145.66814 c 0,-2.88889 0.41667,-4 1.5,-4 1,0 1.5,1 1.5,3 l 0,3 11.5,0 11.5,0 0,-3 c 0,-2 0.5,-3 1.5,-3 1.08333,0 1.5,1.11111 1.5,4 l 0,4 -14.5,0 -14.5,0 0,-4 z"
       id="path3822" />
    <path
       style="fill:#000000"
       d="m 315.46321,140.28694 c -2.86308,-2.91726 -3.91286,-4.62668 -3.13612,-5.10674 0.64792,-0.40043 2.24732,0.29277 3.59355,1.55749 l 2.42597,2.27908 0,-6.17432 c 0,-4.82161 0.32863,-6.17431 1.5,-6.17431 1.17137,0 1.5,1.3527 1.5,6.17431 l 0,6.17432 2.51324,-2.36107 c 1.64585,-1.5462 2.85238,-2.02194 3.49586,-1.37846 0.64349,0.64349 -0.49651,2.43427 -3.3031,5.18873 l -4.28572,4.20611 -4.30368,-4.38514 z"
       id="path3820" />
    <path
       style="fill:#000000"
       d="m 243.34661,136.99383 0,-5.67432 -2.42597,2.27908 c -1.34623,1.26472 -2.94563,1.95792 -3.59355,1.55749 -0.77674,-0.48006 0.27304,-2.18948 3.13612,-5.10674 l 4.30368,-4.38514 4.28572,4.20611 c 2.80659,2.75446 3.94659,4.54524 3.3031,5.18873 -0.64348,0.64348 -1.85001,0.16774 -3.49586,-1.37846 l -2.51324,-2.36107 0,5.67432 c 0,4.37716 -0.3429,5.67431 -1.5,5.67431 -1.1571,0 -1.5,-1.29715 -1.5,-5.67431 z"
       id="path3818" />
    <path
       style="fill:#000000"
       d="m 104.34662,129.01315 c 0,-4.60976 -0.0197,-4.63719 -2.02363,-2.82363 -1.31919,1.19385 -2.36419,1.4908 -3.00195,0.85304 -0.63775,-0.63775 0.24074,-2.15987 2.52363,-4.37253 l 3.50195,-3.39422 3.46108,3.35462 c 3.40922,3.30434 3.97624,6.64845 0.61089,3.60285 -2.62881,-2.37905 -3.07197,-1.95567 -3.07197,2.93486 0,2.475 -0.45,4.5 -1,4.5 -0.55,0 -1,-2.09474 -1,-4.65499 z"
       id="path3816" />
    <path
       style="fill:#000000"
       d="m 176.43036,130.25455 c -3.84737,-3.96948 -3.37219,-7.14547 0.52175,-3.4873 l 2.3945,2.24952 0,-4.67432 c 0,-2.57087 0.45,-4.67431 1,-4.67431 0.55,0 1,2.10344 1,4.67431 l 0,4.67432 2.3945,-2.24952 c 3.89394,-3.65817 4.36912,-0.48218 0.52175,3.4873 -1.81972,1.87747 -3.58203,3.41359 -3.91625,3.41359 -0.33422,0 -2.09653,-1.53612 -3.91625,-3.41359 z"
       id="path3814" />
    <path
       style="fill:#000000"
       d="m 166.34661,67.66815 c 0,-6.44444 0.29167,-8 1.5,-8 1.20833,0 1.5,1.55556 1.5,8 0,6.444434 -0.29167,7.999994 -1.5,7.999994 -1.20833,0 -1.5,-1.55556 -1.5,-7.999994 z"
       id="path3812" />
    <path
       style="fill:#000000"
       d="m 172.34661,67.66815 c 0,-4.66667 0.41667,-8 1,-8 0.58333,0 1,3.33333 1,8 0,4.666664 -0.41667,7.999994 -1,7.999994 -0.58333,0 -1,-3.33333 -1,-7.999994 z"
       id="path3810" />
    <path
       style="fill:#000000"
       d="m 79.34662,65.60557 c 0,-6.740709 3.70117,-18.937419 5.74669,-18.937419 1.57535,0 1.61831,-0.37398 -0.74668,6.5 -1.10001,3.1972 -2.00001,5.967649 -2.00001,6.156549 0,0.1889 2.06538,0.34345 4.58971,0.34345 3.42862,0 5.01193,0.52143 6.25875,2.06119 1.80865,2.23358 5.15154,1.79999 5.15154,-0.66818 0,-1.00495 1.3929,-1.39301 5,-1.39301 2.75,0 5,-0.15455 5,-0.34345 0,-0.1889 -0.9,-2.959349 -2,-6.156549 -2.38134,-6.92148 -2.34296,-6.5 -0.5918,-6.5 2.17803,0 5.59179,11.41272 5.59179,18.694169 l 0,6.305834 -15.99999,0 -16,0 0,-6.062584 z"
       id="path3808" />
    <path
       style="fill:#ffffff"
       d="m 109.15997,65.91815 c 0.31103,-3.22582 0.28032,-3.25 -4.12755,-3.25 -2.72752,0 -4.92121,0.57873 -5.6858,1.5 -0.68469,0.825 -2.48469,1.5 -4,1.5 -1.51531,0 -3.31531,-0.675 -4,-1.5 -0.75964,-0.91531 -2.95124,-1.5 -5.62244,-1.5 -4.14007,0 -4.37756,0.15372 -4.37756,2.83333 0,1.55834 0.31245,3.145792 0.69434,3.527672 0.38188,0.381892 6.56938,0.569392 13.75,0.416672 l 13.05565,-0.277672 0.31336,-3.250002 z"
       id="path3806" />
    <path
       style="fill:#000000"
       d="m 161.34661,65.66815 c 0,-3.33333 0.44444,-6 1,-6 0.55556,0 1,2.66667 1,6 0,3.333332 -0.44444,6.000004 -1,6.000004 -0.55556,0 -1,-2.666672 -1,-6.000004 z"
       id="path3804" />
    <path
       style="fill:#000000"
       d="m 177.34661,65.66815 c 0,-3.33333 0.44444,-6 1,-6 0.55556,0 1,2.66667 1,6 0,3.333332 -0.44444,6.000004 -1,6.000004 -0.55556,0 -1,-2.666672 -1,-6.000004 z"
       id="path3802" />
    <path
       style="fill:#000000"
       d="m 229.34661,60.81819 c 0,-10.473569 0.10429,-10.993929 3.00627,-14.999999 l 3.00627,-4.15004 10.35773,0 10.35773,0 2.636,3.80375 c 2.46455,3.55635 2.636,4.53196 2.636,14.999999 l 0,11.196254 -16,0 -16,0 0,-10.849964 z"
       id="path3800" />
    <path
       style="fill:#ffffff"
       d="m 259.34661,60.66815 0,-7.999999 -5,0 c -3.77778,0 -5,-0.36667 -5,-1.5 0,-1.11442 1.17423,-1.5 4.56809,-1.5 l 4.5681,0 -2.13619,-3 c -1.66309,-2.3356 -2.89624,-3 -5.56809,-3 -3.40078,0 -3.43191,0.0408 -3.43191,4.5 0,3.33333 -0.38889,4.5 -1.5,4.5 -1.11111,0 -1.5,-1.16667 -1.5,-4.5 0,-4.45804 -0.032,-4.5 -3.42742,-4.5 -2.54589,0 -3.98596,0.7073 -5.59903,2.75 l -2.17161,2.75 4.09903,0.3075 c 2.76219,0.20721 4.09903,0.77795 4.09903,1.75 0,1.04296 -1.24639,1.4425 -4.5,1.4425 l -4.5,0 0,7.999999 0,8.000002 13.5,0 13.5,0 0,-8.000002 z"
       id="path3798" />
    <path
       style="fill:#000000"
       d="m 304.34661,60.68155 c 0,-10.355039 0.1581,-11.215189 2.75,-14.962049 l 2.75,-3.9754 10.5,-0.0166 10.5,-0.0166 2.75,3.88842 c 2.60094,3.67766 2.75,4.48954 2.75,14.978649 l 0,11.090224 -16,0 -16,0 0,-10.986654 z"
       id="path3796" />
    <path
       style="fill:#ffffff"
       d="m 334.34661,60.66815 0,-7.999999 -5,0 c -3.77778,0 -5,-0.36667 -5,-1.5 0,-1.08333 1.11111,-1.5 4,-1.5 4.4713,0 4.74172,-0.47803 2.16513,-3.82733 -1.38241,-1.79699 -2.57369,-2.25275 -5.22776,-2 -3.26866,0.31126 -3.45246,0.53593 -3.74487,4.57733 -0.16912,2.3375 -0.70575,4.25 -1.1925,4.25 -0.48675,0 -1.02338,-1.9125 -1.1925,-4.25 -0.27813,-3.84413 -0.58007,-4.28118 -3.16165,-4.57647 -1.9112,-0.21862 -3.64568,0.41714 -5.25,1.92431 -3.33191,3.13017 -3.01456,3.90216 1.60415,3.90216 2.88889,0 4,0.41667 4,1.5 0,1.13333 -1.22222,1.5 -5,1.5 l -5,0 0,7.999999 0,8.000002 14,0 14,0 0,-8.000002 z"
       id="path3794" />
    <path
       style="fill:#000000"
       d="m 316.9517,62.77784 c -2.82369,-2.94729 -2.03211,-5.538899 0.93871,-3.07334 1.21197,1.00585 1.4562,0.76871 1.4562,-1.413909 0,-1.44234 0.45,-2.62244 1,-2.62244 0.55,0 1,1.125 1,2.5 0,2.534839 1.36264,3.340279 2.51008,1.483689 0.34546,-0.55897 1.05511,-0.752409 1.577,-0.42987 1.07878,0.66672 -3.02453,6.30624 -4.64999,6.39085 -0.5846,0.0304 -2.309,-1.24531 -3.832,-2.83498 z"
       id="path3792" />
    <path
       style="fill:#000000"
       d="m 379.34661,60.57793 c 0,-10.489109 0.14906,-11.300989 2.75,-14.978649 l 2.75,-3.88843 10.5,0.0166 10.5,0.0166 2.75,3.9754 c 2.5919,3.74685 2.75,4.60701 2.75,14.962049 l 0,10.986654 -16,0 -16,0 0,-11.090224 z"
       id="path3790" />
    <path
       style="fill:#ffffff"
       d="m 409.34661,60.66813 0,-7.999999 -5,0 c -3.77778,0 -5,-0.36667 -5,-1.5 0,-1.08333 1.11111,-1.5 4,-1.5 4.61871,0 4.93606,-0.77199 1.60415,-3.90216 -1.60432,-1.50717 -3.3388,-2.14293 -5.25,-1.92431 -2.58158,0.29529 -2.88352,0.73234 -3.16165,4.57647 -0.16912,2.3375 -0.70575,4.25 -1.1925,4.25 -0.48675,0 -1.02338,-1.9125 -1.1925,-4.25 -0.29241,-4.0414 -0.47621,-4.26607 -3.74487,-4.57733 -2.65407,-0.25275 -3.84535,0.20301 -5.22776,2 -2.57659,3.3493 -2.30617,3.82733 2.16513,3.82733 2.88889,0 4,0.41667 4,1.5 0,1.13333 -1.22222,1.5 -5,1.5 l -5,0 0,7.999999 0,8.000002 14,0 14,0 0,-8.000002 z"
       id="path3788" />
    <path
       style="fill:#000000"
       d="m 394.34661,63.16813 c 0,-2.67609 -0.93323,-3.16677 -2.68713,-1.41287 -0.78285,0.78284 -1.29356,0.75313 -1.82462,-0.10615 -0.4342,-0.70255 0.46091,-2.39168 2.17659,-4.107359 l 2.91409,-2.91409 3.20161,3.13017 c 1.76089,1.721589 2.92984,3.569899 2.59767,4.107359 -0.3834,0.62036 -1.00094,0.58021 -1.69108,-0.10993 -1.7539,-1.7539 -2.68713,-1.26322 -2.68713,1.41287 0,1.375 -0.45,2.5 -1,2.5 -0.55,0 -1,-1.125 -1,-2.5 z"
       id="path3786" />
    <path
       style="fill:#000000"
       d="m 153.42528,67.26293 c -0.73186,-0.88185 -1.0568,-4.32694 -0.87244,-9.249999 l 0.29377,-7.8448 3.5,-0.5 c 3.31029,-0.4729 3.51667,-0.73036 3.8075,-4.75 l 0.3075,-4.25 10.4425,0 10.4425,0 0,4.43664 c 0,4.2745 0.11878,4.44809 3.25,4.75 l 3.25,0.31336 0.29377,7.8448 c 0.30954,8.265819 -0.56866,10.655201 -3.91621,10.655201 -2.50718,0 -2.40938,-2.627662 0.12244,-3.289752 1.74588,-0.45656 2,-1.36402 2,-7.142019 l 0,-6.61902 -15.75,0.2754 -15.75,0.27539 -0.29981,6.33059 c -0.26865,5.672659 -0.0868,6.386309 1.75,6.866639 1.1274,0.29482 2.04981,1.15855 2.04981,1.9194 0,1.801812 -3.42044,1.786632 -4.92133,-0.0218 z"
       id="path3784" />
    <path
       style="fill:#ffffff"
       d="m 178.34661,46.168131 0,-3.5 -8,0 -8,0 0,2.83333 c 0,1.55834 0.3,3.13334 0.66667,3.5 0.36666,0.36667 3.96666,0.66667 8,0.66667 l 7.33333,0 0,-3.5 z"
       id="path3782" />
    <path
       style="fill:#000000"
       d="m 86.34663,55.668131 c 0,-0.59259 3.66666,-1 8.99999,-1 5.33333,0 9,0.40741 9,1 0,0.59259 -3.66667,1 -9,1 -5.33333,0 -8.99999,-0.40741 -8.99999,-1 z"
       id="path3780" />
    <path
       style="fill:#000000"
       d="m 181.34661,55.668131 c 0,-0.55 0.45,-1 1,-1 0.55,0 1,0.45 1,1 0,0.55 -0.45,1 -1,1 -0.55,0 -1,-0.45 -1,-1 z"
       id="path3778" />
    <path
       style="fill:#000000"
       d="m 88.34662,50.668131 c 0,-0.57143 3,-1 7,-1 4,0 7,0.42857 7,1 0,0.57143 -3,1 -7,1 -4,0 -7,-0.42857 -7,-1 z"
       id="path3776" />
    <path
       style="fill:#000000"
       d="m 90.34662,45.168131 c 0,-1.13333 1.22222,-1.5 5,-1.5 3.77778,0 5,0.36667 5,1.5 0,1.13333 -1.22222,1.5 -5,1.5 -3.77778,0 -5,-0.36667 -5,-1.5 z" />
  </g>
</svg>
