<?xml version="1.0" encoding="UTF-8" standalone="no"?>
<!-- Created with Inkscape (http://www.inkscape.org/) -->

<svg
   xmlns:dc="http://purl.org/dc/elements/1.1/"
   xmlns:cc="http://creativecommons.org/ns#"
   xmlns:rdf="http://www.w3.org/1999/02/22-rdf-syntax-ns#"
   xmlns:svg="http://www.w3.org/2000/svg"
   xmlns="http://www.w3.org/2000/svg"
   xmlns:xlink="http://www.w3.org/1999/xlink"
   xmlns:sodipodi="http://sodipodi.sourceforge.net/DTD/sodipodi-0.dtd"
   xmlns:inkscape="http://www.inkscape.org/namespaces/inkscape"
   width="210mm"
   height="297mm"
   id="svg2"
   version="1.1"
   inkscape:version="0.48.4 r9939"
   sodipodi:docname="fork.svg">
  <defs
     id="defs4">
    <linearGradient
       inkscape:collect="always"
       id="linearGradient3001">
      <stop
         style="stop-color:#4d4d4d;stop-opacity:1;"
         offset="0"
         id="stop3003" />
      <stop
         style="stop-color:#4d4d4d;stop-opacity:0;"
         offset="1"
         id="stop3005" />
    </linearGradient>
    <linearGradient
       inkscape:collect="always"
       xlink:href="#linearGradient3001"
       id="linearGradient3007"
       x1="113.42858"
       y1="-31.192856"
       x2="401.42856"
       y2="-126.90714"
       gradientUnits="userSpaceOnUse"
       gradientTransform="matrix(1.3125,0,0,1,-82.589288,0)" />
    <linearGradient
       inkscape:collect="always"
       xlink:href="#linearGradient3001"
       id="linearGradient3785"
       gradientUnits="userSpaceOnUse"
       gradientTransform="matrix(1.5963915,0,0,0.99820327,-120.87726,0.26736659)"
       x1="113.42858"
       y1="-31.192856"
       x2="401.42856"
       y2="-126.90714" />
  </defs>
  <sodipodi:namedview
     id="base"
     pagecolor="#ffffff"
     bordercolor="#666666"
     borderopacity="1.0"
     inkscape:pageopacity="0.0"
     inkscape:pageshadow="2"
     inkscape:zoom="0.7"
     inkscape:cx="196.81571"
     inkscape:cy="736.76314"
     inkscape:document-units="px"
     inkscape:current-layer="g2986"
     showgrid="false"
     inkscape:window-width="1920"
     inkscape:window-height="1003"
     inkscape:window-x="1271"
     inkscape:window-y="-9"
     inkscape:window-maximized="1" />
  <metadata
     id="metadata7">
    <rdf:RDF>
      <cc:Work
         rdf:about="">
        <dc:format>image/svg+xml</dc:format>
        <dc:type
           rdf:resource="http://purl.org/dc/dcmitype/StillImage" />
        <dc:title></dc:title>
      </cc:Work>
    </rdf:RDF>
  </metadata>
  <g
     inkscape:label="Calque 1"
     inkscape:groupmode="layer"
     id="layer1">
    <g
       id="g2986"
       transform="translate(63.999996,219.26932)"
       style="fill:#4d4d4d">
	<path
   id="path2988"
   d="m 270.2,148.9 c 0,0.1 -0.1,0.1 0,0 v 0.1 -0.1 z"
   inkscape:connector-curvature="0"
   style="fill:#4d4d4d" />

	<path
   d="m 295.0262,59.018762 c 0,-43.122381 -17.94587,-93.032544 -32.31339,-133.459776 l 0,-0.299462 -12.77113,0 -0.31929,116.689962 c 0,6.08904 -4.62953,11.080056 -14.36752,11.080056 -9.09943,0 -12.77113,-4.292273 -13.72896,-9.882212 -0.15964,-0.399281 0,-0.798562 0,-1.197844 l -16.44283,-116.689962 -12.77113,0 -14.36752,116.789782 -0.15965,1.098024 c -0.95783,5.589939 -5.90664,9.882212 -15.16572,9.882212 -9.73799,0 -14.52716,-4.991016 -14.52716,-11.080056 l -0.63855,-116.689962 -12.77113,0 c -14.04825,40.926334 -31.99412,90.736677 -31.99412,133.859059 0,25.653824 17.30731,48.013577 52.58757,58.095437 17.87957,5.09083 8.03921,10.28149 8.03921,10.28149 0,0 -15.54226,201.3376 -15.54226,212.71711 0,11.37952 6.38557,18.46676 15.16572,23.95689 8.78016,5.49011 22.66876,8.18526 35.75917,8.18526 0.15964,0 0.15964,0 0.31928,0 0.15964,0 0.15964,0 0.31928,0 13.0904,0 26.81937,-2.69515 35.75916,-8.18526 8.78016,-5.49013 14.84645,-10.88042 14.84645,-23.95689 0,-13.07646 -15.54227,-212.71711 -15.54227,-212.71711 0,0 -5.59639,-4.99101 14.19886,-10.58095 34.48206,-9.7824 46.42793,-32.142153 46.42793,-57.895798 z"
   inkscape:connector-curvature="0"
   style="fill:url(#linearGradient3785);stroke:#000000;stroke-width:8.70475674;stroke-miterlimit:4;stroke-opacity:0.7364621;stroke-dasharray:none"
   inkscape:export-filename="C:\wamp\www\images\icons\fork.png"
   inkscape:export-xdpi="7.031251"
   inkscape:export-ydpi="7.031251"
   sodipodi:nodetypes="sccccsccccccscccsccssssscsccs" />

</g>
  </g>
</svg>
