<?xml version="1.0" encoding="UTF-8" standalone="no"?>
<!-- Created with Inkscape (http://www.inkscape.org/) -->

<svg
   xmlns:dc="http://purl.org/dc/elements/1.1/"
   xmlns:cc="http://creativecommons.org/ns#"
   xmlns:rdf="http://www.w3.org/1999/02/22-rdf-syntax-ns#"
   xmlns:svg="http://www.w3.org/2000/svg"
   xmlns="http://www.w3.org/2000/svg"
   xmlns:xlink="http://www.w3.org/1999/xlink"
   xmlns:sodipodi="http://sodipodi.sourceforge.net/DTD/sodipodi-0.dtd"
   xmlns:inkscape="http://www.inkscape.org/namespaces/inkscape"
   width="210mm"
   height="297mm"
   id="svg2"
   version="1.1"
   inkscape:version="0.92.1 r15371"
   sodipodi:docname="lieu.svg">
  <defs
     id="defs4">
    <linearGradient
       inkscape:collect="always"
       id="linearGradient3989">
      <stop
         style="stop-color:#333333;stop-opacity:1;"
         offset="0"
         id="stop3991" />
      <stop
         style="stop-color:#333333;stop-opacity:0;"
         offset="1"
         id="stop3993" />
    </linearGradient>
    <linearGradient
       inkscape:collect="always"
       id="linearGradient3966">
      <stop
         style="stop-color:#333333;stop-opacity:1;"
         offset="0"
         id="stop3968" />
      <stop
         style="stop-color:#333333;stop-opacity:0;"
         offset="1"
         id="stop3970" />
    </linearGradient>
    <linearGradient
       inkscape:collect="always"
       id="linearGradient3151">
      <stop
         style="stop-color:#020202;stop-opacity:1;"
         offset="0"
         id="stop3153" />
      <stop
         style="stop-color:#020202;stop-opacity:0;"
         offset="1"
         id="stop3155" />
    </linearGradient>
    <linearGradient
       gradientTransform="matrix(1.3125,0,0,1,-82.589288,0)"
       gradientUnits="userSpaceOnUse"
       y2="-126.90714"
       x2="401.42856"
       y1="-31.192856"
       x1="113.42858"
       id="linearGradient3007"
       xlink:href="#linearGradient3001"
       inkscape:collect="always" />
    <linearGradient
       id="linearGradient3001"
       inkscape:collect="always">
      <stop
         id="stop3003"
         offset="0"
         style="stop-color:#4d4d4d;stop-opacity:1;" />
      <stop
         id="stop3005"
         offset="1"
         style="stop-color:#4d4d4d;stop-opacity:0;" />
    </linearGradient>
    <linearGradient
       inkscape:collect="always"
       xlink:href="#linearGradient3151"
       id="linearGradient3157"
       x1="449.99997"
       y1="538.07648"
       x2="891.42859"
       y2="-130.49498"
       gradientUnits="userSpaceOnUse" />
    <linearGradient
       inkscape:collect="always"
       xlink:href="#linearGradient3151"
       id="linearGradient3938"
       gradientUnits="userSpaceOnUse"
       x1="324.74106"
       y1="653.23389"
       x2="891.42859"
       y2="-130.49498"
       gradientTransform="translate(-652.85714,-111.42857)" />
    <linearGradient
       inkscape:collect="always"
       xlink:href="#linearGradient3151"
       id="linearGradient3940"
       gradientUnits="userSpaceOnUse"
       x1="449.99997"
       y1="538.07648"
       x2="891.42859"
       y2="-130.49498" />
    <linearGradient
       inkscape:collect="always"
       xlink:href="#linearGradient3151"
       id="linearGradient3948"
       gradientUnits="userSpaceOnUse"
       x1="449.99997"
       y1="538.07648"
       x2="891.42859"
       y2="-130.49498" />
    <linearGradient
       inkscape:collect="always"
       xlink:href="#linearGradient3966"
       id="linearGradient3972"
       x1="411.99564"
       y1="483.76013"
       x2="838.28009"
       y2="-15.255225"
       gradientUnits="userSpaceOnUse"
       gradientTransform="translate(-280.82241,-462.64987)" />
    <linearGradient
       inkscape:collect="always"
       xlink:href="#linearGradient3151"
       id="linearGradient3985"
       gradientUnits="userSpaceOnUse"
       x1="449.99997"
       y1="538.07648"
       x2="891.42859"
       y2="-130.49498" />
    <linearGradient
       inkscape:collect="always"
       xlink:href="#linearGradient3989"
       id="linearGradient3995"
       x1="440.27994"
       y1="457.49619"
       x2="911.01105"
       y2="-322.34158"
       gradientUnits="userSpaceOnUse" />
  </defs>
  <sodipodi:namedview
     id="base"
     pagecolor="#ffffff"
     bordercolor="#666666"
     borderopacity="1.0"
     inkscape:pageopacity="0.0"
     inkscape:pageshadow="2"
     inkscape:zoom="0.49497475"
     inkscape:cx="289.54051"
     inkscape:cy="826.8842"
     inkscape:document-units="px"
     inkscape:current-layer="g3145"
     showgrid="false"
     inkscape:window-width="1920"
     inkscape:window-height="1018"
     inkscape:window-x="1272"
     inkscape:window-y="-8"
     inkscape:window-maximized="1" />
  <metadata
     id="metadata7">
    <rdf:RDF>
      <cc:Work
         rdf:about="">
        <dc:format>image/svg+xml</dc:format>
        <dc:type
           rdf:resource="http://purl.org/dc/dcmitype/StillImage" />
        <dc:title />
      </cc:Work>
    </rdf:RDF>
  </metadata>
  <g
     inkscape:label="Calque 1"
     inkscape:groupmode="layer"
     id="layer1">
    <g
       id="g3145"
       transform="translate(-327.14286,-31.428568)"
       style="fill:url(#linearGradient3157);fill-opacity:1">
      <path
         style="fill:url(#linearGradient3938);fill-opacity:1;stroke:#2f2f2f;stroke-width:4.90000009999999970;stroke-miterlimit:4;stroke-opacity:1;stroke-dasharray:none"
         d="m -110.35715,483.84622 c -4.03532,-2.12361 -8.10311,-5.98133 -11.55923,-10.96227 -4.31917,-6.22479 -127.6722,-274.20247 -132.14037,-287.06773 -6.50632,-18.7337 -8.12753,-28.85359 -8.22006,-51.31115 -0.0928,-22.52497 1.3476,-32.44288 7.40986,-51.020691 15.54566,-47.63971 53.23631,-85.7296405 100.47098,-101.53535 19.83818,-6.638267 27.56365,-7.808773 51.53882,-7.808773 23.975167,0 31.700637,1.170506 51.538817,7.808773 47.2346698,15.8057095 84.92532,53.89564 100.47098,101.53535 6.06226,18.577811 7.50266,28.495721 7.40985,51.020691 -0.0925,22.46015 -1.71451,32.5828 -8.22166,51.31115 -3.45729,9.95046 -126.58573,278.54417 -130.84413,285.42479 -2.87964,4.65285 -8.65842,10.33264 -12.56402,12.34879 -4.46307,2.30394 -11.184917,2.41667 -15.289837,0.25642 z M -79.963653,226.5046 c 33.94287,-8.24084 61.75014,-36.18242 70.2830598,-70.62254 1.71885,-6.93753 2.19937,-11.82649 2.19937,-22.37699 0,-10.5505 -0.48052,-15.43946 -2.19937,-22.37699 C -18.264433,76.482459 -45.834543,48.912349 -80.480163,40.328509 c -12.515,-3.10073 -32.238977,-3.10073 -44.753977,0 -34.64562,8.58384 -62.21573,36.15395 -70.79957,70.799571 -3.10073,12.515 -3.10073,32.23898 0,44.75398 9.43327,38.07404 40.57912,66.34812 79.99052,72.61507 8.41091,1.33745 26.472197,0.34 36.079537,-1.99253 z"
         id="path3147"
         inkscape:connector-curvature="0"
         inkscape:export-filename="C:\wamp\www\images\icons\lieu.png"
         inkscape:export-xdpi="5.5597091"
         inkscape:export-ydpi="5.5597091" />
      <path
         style="fill:url(#linearGradient3972);fill-opacity:1;stroke:#2e2e2e;stroke-width:5.5;stroke-miterlimit:4;stroke-opacity:1;stroke-dasharray:none"
         d="m 147.55311,-21.448826 c -16.27742,-8.13149 -16.36773,-8.78008 -16.36773,-117.545474 0,-108.73233 0.0867,-109.35511 16.36773,-117.6032 16.64024,-8.43005 29.00601,-4.86542 30.61892,8.82642 2.74718,23.32048 16.73091,32.77866 34.71377,23.47937 7.89175,-4.08099 9.83042,-7.98632 11.65552,-23.47937 l 1.37785,-11.69643 45.61607,0 45.61607,0 1.37786,11.69643 c 2.74718,23.32048 16.73091,32.77866 34.71376,23.47937 7.89177,-4.08099 9.83043,-7.98632 11.65552,-23.47937 1.61291,-13.69184 13.97868,-17.25647 30.61889,-8.82642 16.2811,8.24809 16.3678,8.87087 16.3678,117.6032 0,136.1239245 16.7174,121.635574 -140.3499,121.635574 -105.56005,0 -116.51829,-0.36151 -123.98213,-4.0901 z m 242.81783,-26.78119 c 2.0534,-2.05343 2.8072,-20.9023 2.8072,-70.199624 l 0,-67.39248 -121.05807,0.60587 -121.05804,0.60588 -0.62176,66.38544 c -0.44044,47.025614 0.15475,67.321064 2.0409,69.593754 3.6605,4.41062 233.49277,4.7982 237.88977,0.40116 z m -220.77603,-19.04528 c -6.0459,-15.75537 -0.0723,-23.76365 17.72605,-23.76365 l 17.54464,0 0,12.86607 0,12.86607 -16.99365,0.68799 c -13.04624,0.52818 -17.29176,-0.0889 -18.27704,-2.65648 z m 56.14286,0 c -6.04591,-15.75537 -0.0723,-23.76365 17.72605,-23.76365 l 17.54464,0 0,12.86607 0,12.86607 -16.99365,0.68799 c -13.04624,0.52818 -17.29177,-0.0889 -18.27704,-2.65648 z m 56.14285,0 c -6.0459,-15.75537 -0.0723,-23.76365 17.72605,-23.76365 l 17.54464,0 0,12.86607 0,12.86607 -16.99365,0.68799 c -13.04624,0.52818 -17.29176,-0.0889 -18.27704,-2.65648 z m 56.14286,0 c -6.04591,-15.75537 -0.0723,-23.76365 17.72605,-23.76365 l 17.54464,0 0,12.86607 0,12.86607 -16.99365,0.68799 c -13.04624,0.52818 -17.29177,-0.0889 -18.27704,-2.65648 z M 169.59491,-104.70387 c -6.0459,-15.75537 -0.0723,-23.76365 17.72605,-23.76365 l 17.54464,0 0,12.86607 0,12.86607 -16.99365,0.68799 c -13.04624,0.52818 -17.29176,-0.0889 -18.27704,-2.65648 z m 56.14286,0 c -6.04591,-15.75537 -0.0723,-23.76365 17.72605,-23.76365 l 17.54464,0 0,12.86607 0,12.86607 -16.99365,0.68799 c -13.04624,0.52818 -17.29177,-0.0889 -18.27704,-2.65648 z m 56.14285,0 c -6.0459,-15.75537 -0.0723,-23.76365 17.72605,-23.76365 l 17.54464,0 0,12.86607 0,12.86607 -16.99365,0.68799 c -13.04624,0.52818 -17.29176,-0.0889 -18.27704,-2.65648 z m 56.14286,0 c -6.04591,-15.75537 -0.0723,-23.76365 17.72605,-23.76365 l 17.54464,0 0,12.86607 0,12.86607 -16.99365,0.68799 c -13.04624,0.52818 -17.29177,-0.0889 -18.27704,-2.65648 z m -112.28571,-37.42857 c -6.04591,-15.75537 -0.0723,-23.76365 17.72605,-23.76365 l 17.54464,0 0,12.86607 0,12.86607 -16.99365,0.68799 c -13.04624,0.52818 -17.29177,-0.0889 -18.27704,-2.65648 z m 56.14285,0 c -6.0459,-15.75537 -0.0723,-23.76365 17.72605,-23.76365 l 17.54464,0 0,12.86607 0,12.86607 -16.99365,0.68799 c -13.04624,0.52818 -17.29176,-0.0889 -18.27704,-2.65648 z m 56.14286,0 c -6.04591,-15.75537 -0.0723,-23.76365 17.72605,-23.76365 l 17.54464,0 0,12.86607 0,12.86607 -16.99365,0.68799 c -13.04624,0.52818 -17.29177,-0.0889 -18.27704,-2.65648 z m -141.60426,-91.98305 c -10.63568,-2.84264 -13.12555,-39.08204 -3.35638,-48.85121 12.09397,-12.09396 22.32955,-1.85838 22.32955,22.32954 0,14.49255 -0.72523,17.3129 -5.74188,22.32955 -5.80179,5.80178 -6.4456,6.00576 -13.23129,4.19212 z m 140.35714,0 c -10.63568,-2.84264 -13.12555,-39.08204 -3.35638,-48.85121 12.09396,-12.09396 22.32955,-1.85838 22.32955,22.32954 0,14.49255 -0.72524,17.3129 -5.74188,22.32955 -5.80179,5.80178 -6.4456,6.00576 -13.23129,4.19212 z"
         id="path3956"
         inkscape:connector-curvature="0"
         inkscape:export-filename="C:\wamp\www\images\icons\cal.png"
         inkscape:export-xdpi="5"
         inkscape:export-ydpi="5" />
      <g
         id="g3942"
         style="fill:url(#linearGradient3948)"
         transform="translate(245.71428,-47.142857)" />
      <path
         style="fill:url(#linearGradient3995);fill-opacity:1;stroke:#000000;stroke-opacity:0.86238533;stroke-width:4;stroke-miterlimit:4;stroke-dasharray:none"
         d="M 555.96448,398.08079 C 444.19936,383.82352 396.43733,248.50516 475.09976,168.97661 556.07624,87.108531 693.94075,135.77645 706.1688,250.5469 c 8.99207,84.39814 -66.19683,158.25028 -150.20432,147.53389 z m 43.13528,-26.91411 c 83.90401,-22.98824 111.5883,-126.69937 49.84664,-186.7359 -58.60142,-56.98302 -158.07935,-32.70019 -182.77608,44.61612 -26.38437,82.59966 50.42885,164.72351 132.92944,142.11978 z m 22,-42.82697 c -6.14977,-1.11318 -60.77401,-58.23551 -61.48114,-64.29281 -1.78471,-15.28785 -0.0954,-95.75259 2.07173,-98.67793 4.81396,-6.49833 14.94858,-6.49771 19.802,0.001 2.06205,2.76116 2.11221,3.79198 2.33024,47.88881 0.12255,24.7868 0.34755,45.20855 0.5,45.38166 0.15244,0.17311 11.82737,11.92284 25.94427,26.1105 28.03401,28.17453 28.63782,29.04022 25.49739,36.55632 -2.2644,5.41947 -8.10396,8.21979 -14.66449,7.03225 z"
         id="path3987"
         inkscape:connector-curvature="0"
         inkscape:export-filename="C:\wamp\www\images\icons\time.png"
         inkscape:export-xdpi="5"
         inkscape:export-ydpi="5" />
    </g>
  </g>
</svg>
