<?xml version="1.0" encoding="UTF-8" standalone="no"?>
<!-- Created with Inkscape (http://www.inkscape.org/) -->

<svg
   xmlns:dc="http://purl.org/dc/elements/1.1/"
   xmlns:cc="http://creativecommons.org/ns#"
   xmlns:rdf="http://www.w3.org/1999/02/22-rdf-syntax-ns#"
   xmlns:svg="http://www.w3.org/2000/svg"
   xmlns="http://www.w3.org/2000/svg"
   xmlns:sodipodi="http://sodipodi.sourceforge.net/DTD/sodipodi-0.dtd"
   xmlns:inkscape="http://www.inkscape.org/namespaces/inkscape"
   width="36"
   height="36"
   id="svg2"
   version="1.1"
   inkscape:version="0.48.4 r9939"
   sodipodi:docname="repert.svg"
   inkscape:export-filename="C:\wamp\www\images\icons\repert.png"
   inkscape:export-xdpi="205.76828"
   inkscape:export-ydpi="205.76828">
  <defs
     id="defs4" />
  <sodipodi:namedview
     id="base"
     pagecolor="#ffffff"
     bordercolor="#666666"
     borderopacity="1.0"
     inkscape:pageopacity="0.0"
     inkscape:pageshadow="2"
     inkscape:zoom="3.959798"
     inkscape:cx="35.712066"
     inkscape:cy="-15.561936"
     inkscape:document-units="px"
     inkscape:current-layer="layer1"
     showgrid="false"
     inkscape:window-width="1920"
     inkscape:window-height="1003"
     inkscape:window-x="1271"
     inkscape:window-y="-9"
     inkscape:window-maximized="1" />
  <metadata
     id="metadata7">
    <rdf:RDF>
      <cc:Work
         rdf:about="">
        <dc:format>image/svg+xml</dc:format>
        <dc:type
           rdf:resource="http://purl.org/dc/dcmitype/StillImage" />
        <dc:title></dc:title>
      </cc:Work>
    </rdf:RDF>
  </metadata>
  <g
     inkscape:label="Calque 1"
     inkscape:groupmode="layer"
     id="layer1"
     transform="translate(0,-1016.3622)">
    <g
       id="g3046"
       transform="matrix(0,0.7802292,-0.7802292,0,821.07068,974.1735)"
       style="fill:#4d4d4d">
      <path
         inkscape:connector-curvature="0"
         id="path3044"
         d="m 60.709755,1043.9803 c -0.256303,-1.5845 -2.033631,-18.9968 -2.037053,-19.9567 -0.0013,-0.3525 0.327277,-0.9704 0.730074,-1.3732 0.711581,-0.7116 1.220596,-0.7323 17.942762,-0.7323 16.722165,0 17.23118,0.021 17.942761,0.7323 0.402797,0.4028 0.731329,1.0207 0.730073,1.3732 -0.0033,0.9599 -1.780749,18.3722 -2.037052,19.9567 l -0.222109,1.3732 -16.413673,0 -16.413674,0 -0.222109,-1.3732 z m 0.523915,-26.1068 c 0,-1.8622 0.14275,-2.3565 0.898802,-3.1126 0.871123,-0.8711 1.061309,-0.8988 6.175658,-0.8988 4.743382,0 5.372117,0.075 6.219143,0.7412 0.590156,0.4643 0.984923,1.1827 1.056374,1.9225 l 0.114086,1.1812 8.275329,0.1831 c 8.444205,0.1868 9.484343,0.3725 9.484343,1.6926 0,0.4209 -2.67082,0.5045 -16.111867,0.5045 l -16.111868,0 0,-2.2137 z"
         style="fill:#4d4d4d" />
    </g>
    <path
       style="fill:#ffffff"
       d="m 12.744904,1045.7717 c -0.516551,-0.1261 -1.117504,-0.3566 -1.439411,-0.5553 -0.49872,-0.3076 -0.88955,-0.7367 -1.048921,-1.1444 -0.08787,-0.2253 -0.09755,-0.2975 -0.07402,-0.5667 0.0222,-0.2611 0.04677,-0.3419 0.151768,-0.5154 0.45984,-0.7582 1.543065,-1.1221 2.501414,-0.8393 1.145771,0.3379 1.686274,1.3667 1.081233,2.0532 -0.277037,0.3139 -0.933221,0.5472 -1.530193,0.5467 -0.157469,0.017 -0.285259,0.024 -0.288507,0.021 -0.0058,0.052 0.225935,0.1948 0.461875,0.3045 0.370034,0.1622 0.90321,0.2571 1.361085,0.2442 0.743018,-0.025 1.27994,-0.1436 1.731058,-0.3906 0.68303,-0.3751 0.990691,-0.9753 0.917658,-1.7953 -0.01131,-0.1261 -0.08882,-0.5419 -0.172609,-0.9214 -0.0836,-0.3792 -0.198847,-0.9027 -0.255989,-1.1627 -0.09552,-0.4352 -0.111286,-0.4736 -0.195985,-0.4778 -0.05151,8e-4 -0.327574,0 -0.615418,0.015 -2.448061,0.083 -4.742562,-0.8364 -6.0670342,-2.4255 -0.461619,-0.5573 -0.727524,-1.0239 -0.903077,-1.6009 -0.162396,-0.5363 -0.205968,-0.9211 -0.160747,-1.4227 0.09642,-1.0656 0.634674,-1.9375 1.8055922,-2.9253 0.805,-0.6792 1.621626,-1.2075 3.42409,-2.217 0.223562,-0.1246 0.413369,-0.2404 0.420205,-0.2588 0.0039,-0.028 -0.01702,-0.166 -0.055,-0.3309 -0.275781,-1.1929 -0.315971,-2.4539 -0.103399,-3.2483 0.195414,-0.7301 0.605038,-1.5643 1.033795,-2.1036 0.551542,-0.694 1.422578,-1.228 2.023184,-1.2398 0.230339,0 0.41885,0.1174 0.706202,0.4562 0.557123,0.6492 1.090074,2.0208 1.2069,3.0701 0.134105,1.2022 -0.500152,2.697 -1.622363,3.8242 -0.486958,0.49 -1.200955,1.0312 -1.896968,1.4446 l -0.122594,0.063 0.154917,0.7651 c 0.0851,0.4206 0.18464,0.908 0.220935,1.0827 l 0.06599,0.3173 0.660691,0.067 c 0.71737,0.072 1.150229,0.1608 1.688057,0.3786 1.254542,0.5055 2.131995,1.4602 2.329544,2.5352 0.104968,0.5708 0.05018,1.0148 -0.19099,1.5511 -0.2842,0.6319 -0.976311,1.222 -1.906861,1.6279 -0.316813,0.1377 -1.049759,0.3756 -1.135365,0.367 -0.124479,-0.015 -0.13009,-0.051 0.264956,1.9374 0.203524,1.0241 0.202086,1.0081 0.1396,1.4812 -0.06688,0.5049 -0.171046,0.755 -0.452179,1.0831 -0.521528,0.6077 -1.510061,0.9736 -2.73689,1.0099 -0.310647,0 -1.176587,-0.059 -1.383802,-0.101 z m 2.888135,-5.7519 c 0.149955,-0.017 0.277407,-0.021 0.283492,-0.021 0.003,-2e-4 -0.09721,-0.5574 -0.635865,-3.279 l -0.220572,-1.115 -0.138526,0.016 c -0.378575,0 -0.983,0.2823 -1.368585,0.6021 -0.364072,0.3 -0.522023,0.562 -0.553268,0.9101 -0.05102,0.5765 0.294647,1.015 1.121896,1.4231 0.377684,0.1883 0.405088,0.2099 0.40005,0.3242 -0.0037,0.063 -0.04393,0.1042 -0.142035,0.142 -0.127147,0.045 -0.155161,0.033 -0.484665,-0.087 -0.613947,-0.2369 -1.153862,-0.6063 -1.524378,-1.0394 -0.64534,-0.7567 -0.743351,-1.6177 -0.271119,-2.3842 0.189417,-0.3086 0.610542,-0.6971 1.035884,-0.9584 0.351416,-0.2151 1.019474,-0.4858 1.367128,-0.5525 0.178087,-0.037 0.224068,-0.059 0.215287,-0.1102 -0.0077,-0.038 -0.0679,-0.349 -0.135498,-0.6955 -0.169068,-0.8673 -0.229446,-1.1221 -0.268057,-1.1257 -0.04965,7e-4 -1.068897,0.5159 -1.588663,0.81 -1.565144,0.8827 -2.514357,1.7601 -2.9061052,2.715 -0.123119,0.2958 -0.21168,0.8927 -0.179375,1.209 0.03299,0.3272 0.226319,0.8255 0.4442072,1.1472 0.59383,0.8731 1.929434,1.6264 3.425489,1.931 0.41209,0.083 1.776189,0.1779 2.127974,0.1491 z m 1.340692,-0.2288 c 0.534754,-0.1705 1.170645,-0.6326 1.431228,-1.0405 0.639775,-0.9618 0.152333,-2.1466 -1.143037,-2.7782 -0.381197,-0.1889 -0.959566,-0.3545 -1.248521,-0.3622 l -0.198187,0 0.410594,2.0079 c 0.225732,1.1043 0.417863,2.0561 0.426833,2.1155 0.01885,0.129 0.06364,0.1392 0.315726,0.053 z m -1.895094,-10.6858 c 0.592288,-0.3346 0.936462,-0.5741 1.406352,-0.9738 0.636806,-0.5548 1.020287,-1.0779 1.231318,-1.6757 0.249474,-0.7073 0.107332,-1.1844 -0.421375,-1.4141 -0.523734,-0.2265 -1.290211,0.019 -1.852199,0.5851 -0.545277,0.5535 -0.956754,1.447 -1.022498,2.2226 -0.04549,0.5342 0.07513,1.4867 0.189559,1.4971 0.03557,0.015 0.238729,-0.1064 0.473245,-0.2346 z"
       id="path3049"
       inkscape:connector-curvature="0"
       inkscape:transform-center-x="5.4202464"
       inkscape:transform-center-y="5.4956334" />
  </g>
</svg>
